<mxfile host="app.diagrams.net" modified="2023-04-09T23:15:05.709Z" agent="Mozilla/5.0 (Macintosh; Intel Mac OS X 10_15_7) AppleWebKit/537.36 (KHTML, like Gecko) Chrome/111.0.0.0 Safari/537.36" etag="vAI-Jq3uYh60LI7l6hSA" version="21.1.5" type="device">
  <diagram name="Page-1" id="3pz5_l13RBfTGp7lG62v">
    <mxGraphModel dx="794" dy="1131" grid="1" gridSize="10" guides="1" tooltips="1" connect="1" arrows="1" fold="1" page="1" pageScale="1" pageWidth="850" pageHeight="1100" background="#E6E6E6" math="0" shadow="0">
      <root>
        <mxCell id="0" />
        <mxCell id="1" parent="0" />
        <mxCell id="miuLS6dzeMhOq6DQjYXv-1" value="names_basics" style="shape=table;startSize=20;container=1;collapsible=1;childLayout=tableLayout;fixedRows=1;rowLines=0;fontStyle=1;align=center;resizeLast=1;html=1;whiteSpace=wrap;strokeColor=#000000;fontColor=#000000;fillColor=#FFE45E;swimlaneFillColor=default;" vertex="1" parent="1">
          <mxGeometry x="270" y="210" width="300" height="210" as="geometry" />
        </mxCell>
        <mxCell id="miuLS6dzeMhOq6DQjYXv-2" value="" style="shape=tableRow;horizontal=0;startSize=0;swimlaneHead=0;swimlaneBody=0;fillColor=none;collapsible=0;dropTarget=0;points=[[0,0.5],[1,0.5]];portConstraint=eastwest;top=0;left=0;right=0;bottom=0;html=1;strokeColor=#FF6392;fontColor=#5AA9E6;" vertex="1" parent="miuLS6dzeMhOq6DQjYXv-1">
          <mxGeometry y="20" width="300" height="30" as="geometry" />
        </mxCell>
        <mxCell id="miuLS6dzeMhOq6DQjYXv-3" value="PK" style="shape=partialRectangle;connectable=0;fillColor=none;top=0;left=0;bottom=0;right=0;fontStyle=0;overflow=hidden;html=1;whiteSpace=wrap;strokeColor=#FF6392;fontColor=#000000;" vertex="1" parent="miuLS6dzeMhOq6DQjYXv-2">
          <mxGeometry width="60" height="30" as="geometry">
            <mxRectangle width="60" height="30" as="alternateBounds" />
          </mxGeometry>
        </mxCell>
        <mxCell id="miuLS6dzeMhOq6DQjYXv-4" value="nconst" style="shape=partialRectangle;connectable=0;fillColor=none;top=0;left=0;bottom=0;right=0;align=left;spacingLeft=6;fontStyle=0;overflow=hidden;html=1;whiteSpace=wrap;strokeColor=#FF6392;fontColor=#000000;" vertex="1" parent="miuLS6dzeMhOq6DQjYXv-2">
          <mxGeometry x="60" width="120" height="30" as="geometry">
            <mxRectangle width="120" height="30" as="alternateBounds" />
          </mxGeometry>
        </mxCell>
        <mxCell id="miuLS6dzeMhOq6DQjYXv-14" value="string" style="shape=partialRectangle;connectable=0;fillColor=none;top=0;left=0;bottom=0;right=0;align=left;spacingLeft=6;fontStyle=0;overflow=hidden;html=1;whiteSpace=wrap;strokeColor=#FF6392;fontColor=#000000;" vertex="1" parent="miuLS6dzeMhOq6DQjYXv-2">
          <mxGeometry x="180" width="120" height="30" as="geometry">
            <mxRectangle width="120" height="30" as="alternateBounds" />
          </mxGeometry>
        </mxCell>
        <mxCell id="miuLS6dzeMhOq6DQjYXv-8" value="" style="shape=tableRow;horizontal=0;startSize=0;swimlaneHead=0;swimlaneBody=0;fillColor=none;collapsible=0;dropTarget=0;points=[[0,0.5],[1,0.5]];portConstraint=eastwest;top=0;left=0;right=0;bottom=0;html=1;strokeColor=#FF6392;fontColor=#5AA9E6;" vertex="1" parent="miuLS6dzeMhOq6DQjYXv-1">
          <mxGeometry y="50" width="300" height="30" as="geometry" />
        </mxCell>
        <mxCell id="miuLS6dzeMhOq6DQjYXv-9" value="" style="shape=partialRectangle;connectable=0;fillColor=none;top=0;left=0;bottom=0;right=0;editable=1;overflow=hidden;html=1;whiteSpace=wrap;strokeColor=#FF6392;fontColor=#000000;fontStyle=0" vertex="1" parent="miuLS6dzeMhOq6DQjYXv-8">
          <mxGeometry width="60" height="30" as="geometry">
            <mxRectangle width="60" height="30" as="alternateBounds" />
          </mxGeometry>
        </mxCell>
        <mxCell id="miuLS6dzeMhOq6DQjYXv-10" value="primaryName" style="shape=partialRectangle;connectable=0;fillColor=none;top=0;left=0;bottom=0;right=0;align=left;spacingLeft=6;overflow=hidden;html=1;whiteSpace=wrap;strokeColor=#FF6392;fontColor=#000000;fontStyle=0" vertex="1" parent="miuLS6dzeMhOq6DQjYXv-8">
          <mxGeometry x="60" width="120" height="30" as="geometry">
            <mxRectangle width="120" height="30" as="alternateBounds" />
          </mxGeometry>
        </mxCell>
        <mxCell id="miuLS6dzeMhOq6DQjYXv-16" value="string" style="shape=partialRectangle;connectable=0;fillColor=none;top=0;left=0;bottom=0;right=0;align=left;spacingLeft=6;overflow=hidden;html=1;whiteSpace=wrap;strokeColor=#FF6392;fontColor=#000000;fontStyle=0" vertex="1" parent="miuLS6dzeMhOq6DQjYXv-8">
          <mxGeometry x="180" width="120" height="30" as="geometry">
            <mxRectangle width="120" height="30" as="alternateBounds" />
          </mxGeometry>
        </mxCell>
        <mxCell id="miuLS6dzeMhOq6DQjYXv-11" value="" style="shape=tableRow;horizontal=0;startSize=0;swimlaneHead=0;swimlaneBody=0;fillColor=none;collapsible=0;dropTarget=0;points=[[0,0.5],[1,0.5]];portConstraint=eastwest;top=0;left=0;right=0;bottom=0;html=1;strokeColor=#FF6392;fontColor=#5AA9E6;" vertex="1" parent="miuLS6dzeMhOq6DQjYXv-1">
          <mxGeometry y="80" width="300" height="30" as="geometry" />
        </mxCell>
        <mxCell id="miuLS6dzeMhOq6DQjYXv-12" value="" style="shape=partialRectangle;connectable=0;fillColor=none;top=0;left=0;bottom=0;right=0;editable=1;overflow=hidden;html=1;whiteSpace=wrap;strokeColor=#FF6392;fontColor=#000000;fontStyle=0" vertex="1" parent="miuLS6dzeMhOq6DQjYXv-11">
          <mxGeometry width="60" height="30" as="geometry">
            <mxRectangle width="60" height="30" as="alternateBounds" />
          </mxGeometry>
        </mxCell>
        <mxCell id="miuLS6dzeMhOq6DQjYXv-13" value="birthYear" style="shape=partialRectangle;connectable=0;fillColor=none;top=0;left=0;bottom=0;right=0;align=left;spacingLeft=6;overflow=hidden;html=1;whiteSpace=wrap;strokeColor=#FF6392;fontColor=#000000;fontStyle=0" vertex="1" parent="miuLS6dzeMhOq6DQjYXv-11">
          <mxGeometry x="60" width="120" height="30" as="geometry">
            <mxRectangle width="120" height="30" as="alternateBounds" />
          </mxGeometry>
        </mxCell>
        <mxCell id="miuLS6dzeMhOq6DQjYXv-17" value="integer" style="shape=partialRectangle;connectable=0;fillColor=none;top=0;left=0;bottom=0;right=0;align=left;spacingLeft=6;overflow=hidden;html=1;whiteSpace=wrap;strokeColor=#FF6392;fontColor=#000000;fontStyle=0" vertex="1" parent="miuLS6dzeMhOq6DQjYXv-11">
          <mxGeometry x="180" width="120" height="30" as="geometry">
            <mxRectangle width="120" height="30" as="alternateBounds" />
          </mxGeometry>
        </mxCell>
        <mxCell id="miuLS6dzeMhOq6DQjYXv-18" style="shape=tableRow;horizontal=0;startSize=0;swimlaneHead=0;swimlaneBody=0;fillColor=none;collapsible=0;dropTarget=0;points=[[0,0.5],[1,0.5]];portConstraint=eastwest;top=0;left=0;right=0;bottom=0;html=1;strokeColor=#FF6392;fontColor=#5AA9E6;" vertex="1" parent="miuLS6dzeMhOq6DQjYXv-1">
          <mxGeometry y="110" width="300" height="30" as="geometry" />
        </mxCell>
        <mxCell id="miuLS6dzeMhOq6DQjYXv-19" style="shape=partialRectangle;connectable=0;fillColor=none;top=0;left=0;bottom=0;right=0;editable=1;overflow=hidden;html=1;whiteSpace=wrap;strokeColor=#FF6392;fontColor=#000000;fontStyle=0" vertex="1" parent="miuLS6dzeMhOq6DQjYXv-18">
          <mxGeometry width="60" height="30" as="geometry">
            <mxRectangle width="60" height="30" as="alternateBounds" />
          </mxGeometry>
        </mxCell>
        <mxCell id="miuLS6dzeMhOq6DQjYXv-20" value="deathYear" style="shape=partialRectangle;connectable=0;fillColor=none;top=0;left=0;bottom=0;right=0;align=left;spacingLeft=6;overflow=hidden;html=1;whiteSpace=wrap;strokeColor=#FF6392;fontColor=#000000;fontStyle=0" vertex="1" parent="miuLS6dzeMhOq6DQjYXv-18">
          <mxGeometry x="60" width="120" height="30" as="geometry">
            <mxRectangle width="120" height="30" as="alternateBounds" />
          </mxGeometry>
        </mxCell>
        <mxCell id="miuLS6dzeMhOq6DQjYXv-21" value="integer" style="shape=partialRectangle;connectable=0;fillColor=none;top=0;left=0;bottom=0;right=0;align=left;spacingLeft=6;overflow=hidden;html=1;whiteSpace=wrap;strokeColor=#FF6392;fontColor=#000000;fontStyle=0" vertex="1" parent="miuLS6dzeMhOq6DQjYXv-18">
          <mxGeometry x="180" width="120" height="30" as="geometry">
            <mxRectangle width="120" height="30" as="alternateBounds" />
          </mxGeometry>
        </mxCell>
        <mxCell id="miuLS6dzeMhOq6DQjYXv-22" style="shape=tableRow;horizontal=0;startSize=0;swimlaneHead=0;swimlaneBody=0;fillColor=none;collapsible=0;dropTarget=0;points=[[0,0.5],[1,0.5]];portConstraint=eastwest;top=0;left=0;right=0;bottom=0;html=1;strokeColor=#FF6392;fontColor=#5AA9E6;" vertex="1" parent="miuLS6dzeMhOq6DQjYXv-1">
          <mxGeometry y="140" width="300" height="30" as="geometry" />
        </mxCell>
        <mxCell id="miuLS6dzeMhOq6DQjYXv-23" value="" style="shape=partialRectangle;connectable=0;fillColor=none;top=0;left=0;bottom=0;right=0;editable=1;overflow=hidden;html=1;whiteSpace=wrap;strokeColor=#FF6392;fontColor=#000000;fontStyle=0" vertex="1" parent="miuLS6dzeMhOq6DQjYXv-22">
          <mxGeometry width="60" height="30" as="geometry">
            <mxRectangle width="60" height="30" as="alternateBounds" />
          </mxGeometry>
        </mxCell>
        <mxCell id="miuLS6dzeMhOq6DQjYXv-24" value="primaryProfession" style="shape=partialRectangle;connectable=0;fillColor=none;top=0;left=0;bottom=0;right=0;align=left;spacingLeft=6;overflow=hidden;html=1;whiteSpace=wrap;strokeColor=#FF6392;fontColor=#000000;fontStyle=0" vertex="1" parent="miuLS6dzeMhOq6DQjYXv-22">
          <mxGeometry x="60" width="120" height="30" as="geometry">
            <mxRectangle width="120" height="30" as="alternateBounds" />
          </mxGeometry>
        </mxCell>
        <mxCell id="miuLS6dzeMhOq6DQjYXv-25" value="string" style="shape=partialRectangle;connectable=0;fillColor=none;top=0;left=0;bottom=0;right=0;align=left;spacingLeft=6;overflow=hidden;html=1;whiteSpace=wrap;strokeColor=#FF6392;fontColor=#000000;fontStyle=0" vertex="1" parent="miuLS6dzeMhOq6DQjYXv-22">
          <mxGeometry x="180" width="120" height="30" as="geometry">
            <mxRectangle width="120" height="30" as="alternateBounds" />
          </mxGeometry>
        </mxCell>
        <mxCell id="miuLS6dzeMhOq6DQjYXv-26" style="shape=tableRow;horizontal=0;startSize=0;swimlaneHead=0;swimlaneBody=0;fillColor=none;collapsible=0;dropTarget=0;points=[[0,0.5],[1,0.5]];portConstraint=eastwest;top=0;left=0;right=0;bottom=0;html=1;strokeColor=#FF6392;fontColor=#5AA9E6;" vertex="1" parent="miuLS6dzeMhOq6DQjYXv-1">
          <mxGeometry y="170" width="300" height="30" as="geometry" />
        </mxCell>
        <mxCell id="miuLS6dzeMhOq6DQjYXv-27" value="FK" style="shape=partialRectangle;connectable=0;fillColor=none;top=0;left=0;bottom=0;right=0;editable=1;overflow=hidden;html=1;whiteSpace=wrap;strokeColor=#FF6392;fontColor=#000000;fontStyle=0" vertex="1" parent="miuLS6dzeMhOq6DQjYXv-26">
          <mxGeometry width="60" height="30" as="geometry">
            <mxRectangle width="60" height="30" as="alternateBounds" />
          </mxGeometry>
        </mxCell>
        <mxCell id="miuLS6dzeMhOq6DQjYXv-28" value="knownForTitles" style="shape=partialRectangle;connectable=0;fillColor=none;top=0;left=0;bottom=0;right=0;align=left;spacingLeft=6;overflow=hidden;html=1;whiteSpace=wrap;strokeColor=#FF6392;fontColor=#000000;fontStyle=0" vertex="1" parent="miuLS6dzeMhOq6DQjYXv-26">
          <mxGeometry x="60" width="120" height="30" as="geometry">
            <mxRectangle width="120" height="30" as="alternateBounds" />
          </mxGeometry>
        </mxCell>
        <mxCell id="miuLS6dzeMhOq6DQjYXv-29" value="string" style="shape=partialRectangle;connectable=0;fillColor=none;top=0;left=0;bottom=0;right=0;align=left;spacingLeft=6;overflow=hidden;html=1;whiteSpace=wrap;strokeColor=#FF6392;fontColor=#000000;fontStyle=0" vertex="1" parent="miuLS6dzeMhOq6DQjYXv-26">
          <mxGeometry x="180" width="120" height="30" as="geometry">
            <mxRectangle width="120" height="30" as="alternateBounds" />
          </mxGeometry>
        </mxCell>
        <mxCell id="miuLS6dzeMhOq6DQjYXv-30" value="title_akas" style="shape=table;startSize=20;container=1;collapsible=1;childLayout=tableLayout;fixedRows=1;rowLines=0;fontStyle=1;align=center;resizeLast=1;html=1;whiteSpace=wrap;strokeColor=#000000;fontColor=#000000;fillColor=#FFE45E;swimlaneFillColor=default;" vertex="1" parent="1">
          <mxGeometry x="270" y="560" width="300" height="270" as="geometry" />
        </mxCell>
        <mxCell id="miuLS6dzeMhOq6DQjYXv-31" value="" style="shape=tableRow;horizontal=0;startSize=0;swimlaneHead=0;swimlaneBody=0;fillColor=none;collapsible=0;dropTarget=0;points=[[0,0.5],[1,0.5]];portConstraint=eastwest;top=0;left=0;right=0;bottom=0;html=1;strokeColor=#FF6392;fontColor=#5AA9E6;" vertex="1" parent="miuLS6dzeMhOq6DQjYXv-30">
          <mxGeometry y="20" width="300" height="30" as="geometry" />
        </mxCell>
        <mxCell id="miuLS6dzeMhOq6DQjYXv-32" value="PK" style="shape=partialRectangle;connectable=0;fillColor=none;top=0;left=0;bottom=0;right=0;fontStyle=0;overflow=hidden;html=1;whiteSpace=wrap;strokeColor=#FF6392;fontColor=#000000;" vertex="1" parent="miuLS6dzeMhOq6DQjYXv-31">
          <mxGeometry width="60" height="30" as="geometry">
            <mxRectangle width="60" height="30" as="alternateBounds" />
          </mxGeometry>
        </mxCell>
        <mxCell id="miuLS6dzeMhOq6DQjYXv-33" value="titleId" style="shape=partialRectangle;connectable=0;fillColor=none;top=0;left=0;bottom=0;right=0;align=left;spacingLeft=6;fontStyle=0;overflow=hidden;html=1;whiteSpace=wrap;strokeColor=#FF6392;fontColor=#000000;" vertex="1" parent="miuLS6dzeMhOq6DQjYXv-31">
          <mxGeometry x="60" width="120" height="30" as="geometry">
            <mxRectangle width="120" height="30" as="alternateBounds" />
          </mxGeometry>
        </mxCell>
        <mxCell id="miuLS6dzeMhOq6DQjYXv-34" value="string" style="shape=partialRectangle;connectable=0;fillColor=none;top=0;left=0;bottom=0;right=0;align=left;spacingLeft=6;fontStyle=0;overflow=hidden;html=1;whiteSpace=wrap;strokeColor=#FF6392;fontColor=#000000;" vertex="1" parent="miuLS6dzeMhOq6DQjYXv-31">
          <mxGeometry x="180" width="120" height="30" as="geometry">
            <mxRectangle width="120" height="30" as="alternateBounds" />
          </mxGeometry>
        </mxCell>
        <mxCell id="miuLS6dzeMhOq6DQjYXv-35" value="" style="shape=tableRow;horizontal=0;startSize=0;swimlaneHead=0;swimlaneBody=0;fillColor=none;collapsible=0;dropTarget=0;points=[[0,0.5],[1,0.5]];portConstraint=eastwest;top=0;left=0;right=0;bottom=0;html=1;strokeColor=#FF6392;fontColor=#5AA9E6;" vertex="1" parent="miuLS6dzeMhOq6DQjYXv-30">
          <mxGeometry y="50" width="300" height="30" as="geometry" />
        </mxCell>
        <mxCell id="miuLS6dzeMhOq6DQjYXv-36" value="" style="shape=partialRectangle;connectable=0;fillColor=none;top=0;left=0;bottom=0;right=0;editable=1;overflow=hidden;html=1;whiteSpace=wrap;strokeColor=#FF6392;fontColor=#000000;fontStyle=0" vertex="1" parent="miuLS6dzeMhOq6DQjYXv-35">
          <mxGeometry width="60" height="30" as="geometry">
            <mxRectangle width="60" height="30" as="alternateBounds" />
          </mxGeometry>
        </mxCell>
        <mxCell id="miuLS6dzeMhOq6DQjYXv-37" value="ordering" style="shape=partialRectangle;connectable=0;fillColor=none;top=0;left=0;bottom=0;right=0;align=left;spacingLeft=6;overflow=hidden;html=1;whiteSpace=wrap;strokeColor=#FF6392;fontColor=#000000;fontStyle=0" vertex="1" parent="miuLS6dzeMhOq6DQjYXv-35">
          <mxGeometry x="60" width="120" height="30" as="geometry">
            <mxRectangle width="120" height="30" as="alternateBounds" />
          </mxGeometry>
        </mxCell>
        <mxCell id="miuLS6dzeMhOq6DQjYXv-38" value="integer" style="shape=partialRectangle;connectable=0;fillColor=none;top=0;left=0;bottom=0;right=0;align=left;spacingLeft=6;overflow=hidden;html=1;whiteSpace=wrap;strokeColor=#FF6392;fontColor=#000000;fontStyle=0" vertex="1" parent="miuLS6dzeMhOq6DQjYXv-35">
          <mxGeometry x="180" width="120" height="30" as="geometry">
            <mxRectangle width="120" height="30" as="alternateBounds" />
          </mxGeometry>
        </mxCell>
        <mxCell id="miuLS6dzeMhOq6DQjYXv-39" value="" style="shape=tableRow;horizontal=0;startSize=0;swimlaneHead=0;swimlaneBody=0;fillColor=none;collapsible=0;dropTarget=0;points=[[0,0.5],[1,0.5]];portConstraint=eastwest;top=0;left=0;right=0;bottom=0;html=1;strokeColor=#FF6392;fontColor=#5AA9E6;" vertex="1" parent="miuLS6dzeMhOq6DQjYXv-30">
          <mxGeometry y="80" width="300" height="30" as="geometry" />
        </mxCell>
        <mxCell id="miuLS6dzeMhOq6DQjYXv-40" value="" style="shape=partialRectangle;connectable=0;fillColor=none;top=0;left=0;bottom=0;right=0;editable=1;overflow=hidden;html=1;whiteSpace=wrap;strokeColor=#FF6392;fontColor=#000000;fontStyle=0" vertex="1" parent="miuLS6dzeMhOq6DQjYXv-39">
          <mxGeometry width="60" height="30" as="geometry">
            <mxRectangle width="60" height="30" as="alternateBounds" />
          </mxGeometry>
        </mxCell>
        <mxCell id="miuLS6dzeMhOq6DQjYXv-41" value="title" style="shape=partialRectangle;connectable=0;fillColor=none;top=0;left=0;bottom=0;right=0;align=left;spacingLeft=6;overflow=hidden;html=1;whiteSpace=wrap;strokeColor=#FF6392;fontColor=#000000;fontStyle=0" vertex="1" parent="miuLS6dzeMhOq6DQjYXv-39">
          <mxGeometry x="60" width="120" height="30" as="geometry">
            <mxRectangle width="120" height="30" as="alternateBounds" />
          </mxGeometry>
        </mxCell>
        <mxCell id="miuLS6dzeMhOq6DQjYXv-42" value="string" style="shape=partialRectangle;connectable=0;fillColor=none;top=0;left=0;bottom=0;right=0;align=left;spacingLeft=6;overflow=hidden;html=1;whiteSpace=wrap;strokeColor=#FF6392;fontColor=#000000;fontStyle=0" vertex="1" parent="miuLS6dzeMhOq6DQjYXv-39">
          <mxGeometry x="180" width="120" height="30" as="geometry">
            <mxRectangle width="120" height="30" as="alternateBounds" />
          </mxGeometry>
        </mxCell>
        <mxCell id="miuLS6dzeMhOq6DQjYXv-43" style="shape=tableRow;horizontal=0;startSize=0;swimlaneHead=0;swimlaneBody=0;fillColor=none;collapsible=0;dropTarget=0;points=[[0,0.5],[1,0.5]];portConstraint=eastwest;top=0;left=0;right=0;bottom=0;html=1;strokeColor=#FF6392;fontColor=#5AA9E6;" vertex="1" parent="miuLS6dzeMhOq6DQjYXv-30">
          <mxGeometry y="110" width="300" height="30" as="geometry" />
        </mxCell>
        <mxCell id="miuLS6dzeMhOq6DQjYXv-44" style="shape=partialRectangle;connectable=0;fillColor=none;top=0;left=0;bottom=0;right=0;editable=1;overflow=hidden;html=1;whiteSpace=wrap;strokeColor=#FF6392;fontColor=#000000;fontStyle=0" vertex="1" parent="miuLS6dzeMhOq6DQjYXv-43">
          <mxGeometry width="60" height="30" as="geometry">
            <mxRectangle width="60" height="30" as="alternateBounds" />
          </mxGeometry>
        </mxCell>
        <mxCell id="miuLS6dzeMhOq6DQjYXv-45" value="region" style="shape=partialRectangle;connectable=0;fillColor=none;top=0;left=0;bottom=0;right=0;align=left;spacingLeft=6;overflow=hidden;html=1;whiteSpace=wrap;strokeColor=#FF6392;fontColor=#000000;fontStyle=0" vertex="1" parent="miuLS6dzeMhOq6DQjYXv-43">
          <mxGeometry x="60" width="120" height="30" as="geometry">
            <mxRectangle width="120" height="30" as="alternateBounds" />
          </mxGeometry>
        </mxCell>
        <mxCell id="miuLS6dzeMhOq6DQjYXv-46" value="string" style="shape=partialRectangle;connectable=0;fillColor=none;top=0;left=0;bottom=0;right=0;align=left;spacingLeft=6;overflow=hidden;html=1;whiteSpace=wrap;strokeColor=#FF6392;fontColor=#000000;fontStyle=0" vertex="1" parent="miuLS6dzeMhOq6DQjYXv-43">
          <mxGeometry x="180" width="120" height="30" as="geometry">
            <mxRectangle width="120" height="30" as="alternateBounds" />
          </mxGeometry>
        </mxCell>
        <mxCell id="miuLS6dzeMhOq6DQjYXv-47" style="shape=tableRow;horizontal=0;startSize=0;swimlaneHead=0;swimlaneBody=0;fillColor=none;collapsible=0;dropTarget=0;points=[[0,0.5],[1,0.5]];portConstraint=eastwest;top=0;left=0;right=0;bottom=0;html=1;strokeColor=#FF6392;fontColor=#5AA9E6;" vertex="1" parent="miuLS6dzeMhOq6DQjYXv-30">
          <mxGeometry y="140" width="300" height="30" as="geometry" />
        </mxCell>
        <mxCell id="miuLS6dzeMhOq6DQjYXv-48" value="" style="shape=partialRectangle;connectable=0;fillColor=none;top=0;left=0;bottom=0;right=0;editable=1;overflow=hidden;html=1;whiteSpace=wrap;strokeColor=#FF6392;fontColor=#000000;fontStyle=0" vertex="1" parent="miuLS6dzeMhOq6DQjYXv-47">
          <mxGeometry width="60" height="30" as="geometry">
            <mxRectangle width="60" height="30" as="alternateBounds" />
          </mxGeometry>
        </mxCell>
        <mxCell id="miuLS6dzeMhOq6DQjYXv-49" value="language" style="shape=partialRectangle;connectable=0;fillColor=none;top=0;left=0;bottom=0;right=0;align=left;spacingLeft=6;overflow=hidden;html=1;whiteSpace=wrap;strokeColor=#FF6392;fontColor=#000000;fontStyle=0" vertex="1" parent="miuLS6dzeMhOq6DQjYXv-47">
          <mxGeometry x="60" width="120" height="30" as="geometry">
            <mxRectangle width="120" height="30" as="alternateBounds" />
          </mxGeometry>
        </mxCell>
        <mxCell id="miuLS6dzeMhOq6DQjYXv-50" value="string" style="shape=partialRectangle;connectable=0;fillColor=none;top=0;left=0;bottom=0;right=0;align=left;spacingLeft=6;overflow=hidden;html=1;whiteSpace=wrap;strokeColor=#FF6392;fontColor=#000000;fontStyle=0" vertex="1" parent="miuLS6dzeMhOq6DQjYXv-47">
          <mxGeometry x="180" width="120" height="30" as="geometry">
            <mxRectangle width="120" height="30" as="alternateBounds" />
          </mxGeometry>
        </mxCell>
        <mxCell id="miuLS6dzeMhOq6DQjYXv-51" style="shape=tableRow;horizontal=0;startSize=0;swimlaneHead=0;swimlaneBody=0;fillColor=none;collapsible=0;dropTarget=0;points=[[0,0.5],[1,0.5]];portConstraint=eastwest;top=0;left=0;right=0;bottom=0;html=1;strokeColor=#FF6392;fontColor=#5AA9E6;" vertex="1" parent="miuLS6dzeMhOq6DQjYXv-30">
          <mxGeometry y="170" width="300" height="30" as="geometry" />
        </mxCell>
        <mxCell id="miuLS6dzeMhOq6DQjYXv-52" value="" style="shape=partialRectangle;connectable=0;fillColor=none;top=0;left=0;bottom=0;right=0;editable=1;overflow=hidden;html=1;whiteSpace=wrap;strokeColor=#FF6392;fontColor=#000000;fontStyle=0" vertex="1" parent="miuLS6dzeMhOq6DQjYXv-51">
          <mxGeometry width="60" height="30" as="geometry">
            <mxRectangle width="60" height="30" as="alternateBounds" />
          </mxGeometry>
        </mxCell>
        <mxCell id="miuLS6dzeMhOq6DQjYXv-53" value="types" style="shape=partialRectangle;connectable=0;fillColor=none;top=0;left=0;bottom=0;right=0;align=left;spacingLeft=6;overflow=hidden;html=1;whiteSpace=wrap;strokeColor=#FF6392;fontColor=#000000;fontStyle=0" vertex="1" parent="miuLS6dzeMhOq6DQjYXv-51">
          <mxGeometry x="60" width="120" height="30" as="geometry">
            <mxRectangle width="120" height="30" as="alternateBounds" />
          </mxGeometry>
        </mxCell>
        <mxCell id="miuLS6dzeMhOq6DQjYXv-54" value="string" style="shape=partialRectangle;connectable=0;fillColor=none;top=0;left=0;bottom=0;right=0;align=left;spacingLeft=6;overflow=hidden;html=1;whiteSpace=wrap;strokeColor=#FF6392;fontColor=#000000;fontStyle=0" vertex="1" parent="miuLS6dzeMhOq6DQjYXv-51">
          <mxGeometry x="180" width="120" height="30" as="geometry">
            <mxRectangle width="120" height="30" as="alternateBounds" />
          </mxGeometry>
        </mxCell>
        <mxCell id="miuLS6dzeMhOq6DQjYXv-59" style="shape=tableRow;horizontal=0;startSize=0;swimlaneHead=0;swimlaneBody=0;fillColor=none;collapsible=0;dropTarget=0;points=[[0,0.5],[1,0.5]];portConstraint=eastwest;top=0;left=0;right=0;bottom=0;html=1;strokeColor=#FF6392;fontColor=#5AA9E6;" vertex="1" parent="miuLS6dzeMhOq6DQjYXv-30">
          <mxGeometry y="200" width="300" height="30" as="geometry" />
        </mxCell>
        <mxCell id="miuLS6dzeMhOq6DQjYXv-60" style="shape=partialRectangle;connectable=0;fillColor=none;top=0;left=0;bottom=0;right=0;editable=1;overflow=hidden;html=1;whiteSpace=wrap;strokeColor=#FF6392;fontColor=#000000;fontStyle=0" vertex="1" parent="miuLS6dzeMhOq6DQjYXv-59">
          <mxGeometry width="60" height="30" as="geometry">
            <mxRectangle width="60" height="30" as="alternateBounds" />
          </mxGeometry>
        </mxCell>
        <mxCell id="miuLS6dzeMhOq6DQjYXv-61" value="attributes" style="shape=partialRectangle;connectable=0;fillColor=none;top=0;left=0;bottom=0;right=0;align=left;spacingLeft=6;overflow=hidden;html=1;whiteSpace=wrap;strokeColor=#FF6392;fontColor=#000000;fontStyle=0" vertex="1" parent="miuLS6dzeMhOq6DQjYXv-59">
          <mxGeometry x="60" width="120" height="30" as="geometry">
            <mxRectangle width="120" height="30" as="alternateBounds" />
          </mxGeometry>
        </mxCell>
        <mxCell id="miuLS6dzeMhOq6DQjYXv-62" value="string" style="shape=partialRectangle;connectable=0;fillColor=none;top=0;left=0;bottom=0;right=0;align=left;spacingLeft=6;overflow=hidden;html=1;whiteSpace=wrap;strokeColor=#FF6392;fontColor=#000000;fontStyle=0" vertex="1" parent="miuLS6dzeMhOq6DQjYXv-59">
          <mxGeometry x="180" width="120" height="30" as="geometry">
            <mxRectangle width="120" height="30" as="alternateBounds" />
          </mxGeometry>
        </mxCell>
        <mxCell id="miuLS6dzeMhOq6DQjYXv-55" style="shape=tableRow;horizontal=0;startSize=0;swimlaneHead=0;swimlaneBody=0;fillColor=none;collapsible=0;dropTarget=0;points=[[0,0.5],[1,0.5]];portConstraint=eastwest;top=0;left=0;right=0;bottom=0;html=1;strokeColor=#FF6392;fontColor=#5AA9E6;" vertex="1" parent="miuLS6dzeMhOq6DQjYXv-30">
          <mxGeometry y="230" width="300" height="30" as="geometry" />
        </mxCell>
        <mxCell id="miuLS6dzeMhOq6DQjYXv-56" style="shape=partialRectangle;connectable=0;fillColor=none;top=0;left=0;bottom=0;right=0;editable=1;overflow=hidden;html=1;whiteSpace=wrap;strokeColor=#FF6392;fontColor=#000000;fontStyle=0" vertex="1" parent="miuLS6dzeMhOq6DQjYXv-55">
          <mxGeometry width="60" height="30" as="geometry">
            <mxRectangle width="60" height="30" as="alternateBounds" />
          </mxGeometry>
        </mxCell>
        <mxCell id="miuLS6dzeMhOq6DQjYXv-57" value="isOriginalTitle" style="shape=partialRectangle;connectable=0;fillColor=none;top=0;left=0;bottom=0;right=0;align=left;spacingLeft=6;overflow=hidden;html=1;whiteSpace=wrap;strokeColor=#FF6392;fontColor=#000000;fontStyle=0" vertex="1" parent="miuLS6dzeMhOq6DQjYXv-55">
          <mxGeometry x="60" width="120" height="30" as="geometry">
            <mxRectangle width="120" height="30" as="alternateBounds" />
          </mxGeometry>
        </mxCell>
        <mxCell id="miuLS6dzeMhOq6DQjYXv-58" value="integer" style="shape=partialRectangle;connectable=0;fillColor=none;top=0;left=0;bottom=0;right=0;align=left;spacingLeft=6;overflow=hidden;html=1;whiteSpace=wrap;strokeColor=#FF6392;fontColor=#000000;fontStyle=0" vertex="1" parent="miuLS6dzeMhOq6DQjYXv-55">
          <mxGeometry x="180" width="120" height="30" as="geometry">
            <mxRectangle width="120" height="30" as="alternateBounds" />
          </mxGeometry>
        </mxCell>
      </root>
    </mxGraphModel>
  </diagram>
</mxfile>
